HIERARCHY
ROOT SpineBase
{
  OFFSET 0.000000 0.000000 0.000000
  CHANNELS 6 Xposition Yposition Zposition Zrotation Xrotation Yrotation
  JOINT SpineMid
  {
    OFFSET 0.000000 31.671730 0.000000
    CHANNELS 3 Zrotation Xrotation Yrotation
    JOINT SpineShoulder
    {
      OFFSET -0.233885 23.627102 -0.861072
      CHANNELS 3 Zrotation Xrotation Yrotation
      JOINT Neck
      {
        OFFSET -0.147989 7.847270 -0.596787
        CHANNELS 3 Zrotation Xrotation Yrotation
        JOINT Head
        {
          OFFSET -5.430818 12.041123 3.891361
          CHANNELS 3 Zrotation Xrotation Yrotation
          End Site
          {
            OFFSET 0 0 0
          }
        }
      }
      JOINT ShoulderLeft
      {
        OFFSET -1.341874 -0.119636 -17.993827
        CHANNELS 3 Zrotation Xrotation Yrotation
        JOINT ElbowLeft
        {
          OFFSET -4.617688 -20.350613 17.753360
          CHANNELS 3 Zrotation Xrotation Yrotation
          JOINT WristLeft
          {
            OFFSET -5.362622 -24.098253 13.502423
            CHANNELS 3 Zrotation Xrotation Yrotation
            JOINT HandLeft
            {
              OFFSET -4.089048 -15.991431 9.431198
              CHANNELS 3 Zrotation Xrotation Yrotation
              JOINT HandTipLeft
              {
                OFFSET 0.793807 -7.092250 -0.195249
                CHANNELS 3 Zrotation Xrotation Yrotation
                End Site
                {
                  OFFSET 0 0 0
                }
              }
              JOINT ThumbLeft
              {
                OFFSET 1.068045 -1.714646 -2.879596
                CHANNELS 3 Zrotation Xrotation Yrotation
                End Site
                {
                  OFFSET 0 0 0
                }
              }
            }
          }
        }
      }
      JOINT ShoulderRight
      {
        OFFSET 9.137020 -3.679696 -11.578896
        CHANNELS 3 Zrotation Xrotation Yrotation
        JOINT ElbowRight
        {
          OFFSET 8.677208 -26.879407 -6.159078
          CHANNELS 3 Zrotation Xrotation Yrotation
          JOINT WristRight
          {
            OFFSET 0.960681 -23.164476 -5.017104
            CHANNELS 3 Zrotation Xrotation Yrotation
            JOINT HandRight
            {
              OFFSET -0.826177 -6.195169 -0.240525
              CHANNELS 3 Zrotation Xrotation Yrotation
              JOINT HandTipRight
              {
                OFFSET 0.098575 -7.264899 -1.649265
                CHANNELS 3 Zrotation Xrotation Yrotation
                End Site
                {
                  OFFSET 0 0 0
                }
              }
              JOINT ThumbRight
              {
                OFFSET -3.521740 -0.120215 1.256301
                CHANNELS 3 Zrotation Xrotation Yrotation
                End Site
                {
                  OFFSET 0 0 0
                }
              }
            }
          }
        }
      }
    }
  }
  JOINT HipLeft
  {
    OFFSET -5.518066 0.907075 0.080745
    CHANNELS 3 Zrotation Xrotation Yrotation
    JOINT KneeLeft
    {
      OFFSET -1.707677 -36.421172 2.761147
      CHANNELS 3 Zrotation Xrotation Yrotation
      JOINT AnkleLeft
      {
        OFFSET 10.007693 -34.587755 -0.848079
        CHANNELS 3 Zrotation Xrotation Yrotation
        JOINT FootLeft
        {
          OFFSET -2.660894 -7.320350 -5.082196
          CHANNELS 3 Zrotation Xrotation Yrotation
          End Site
          {
            OFFSET 0 0 0
          }
        }
      }
    }
  }
  JOINT HipRight
  {
    OFFSET 4.869586 1.469278 -7.192419
    CHANNELS 3 Zrotation Xrotation Yrotation
    JOINT KneeRight
    {
      OFFSET 1.692245 -31.658981 -11.954825
      CHANNELS 3 Zrotation Xrotation Yrotation
      JOINT AnkleRight
      {
        OFFSET 16.600725 -39.333334 9.561190
        CHANNELS 3 Zrotation Xrotation Yrotation
        JOINT FootRight
        {
          OFFSET 4.490579 -2.934246 -11.293982
          CHANNELS 3 Zrotation Xrotation Yrotation
          End Site
          {
            OFFSET 0 0 0
          }
        }
      }
    }
  }
}
MOTION
Frames: 16
Frame Time: 0.033333
31.923794 80.372063 337.984801 -0.000000 0.000000 34.998714 -0.000000 0.000000 -34.998714 -0.000000 0.000000 0.000000 -0.000000 0.000000 0.000000 0.000000 0.000000 0.000000 -0.000000 0.000000 0.000000 -0.000000 0.000000 0.000000 -0.000000 0.000000 0.000000 -0.000000 0.000000 0.000000 0.000000 0.000000 0.000000 0.000000 0.000000 0.000000 -0.000000 0.000000 0.000000 -0.000000 0.000000 0.000000 -0.000000 0.000000 0.000000 -0.000000 0.000000 0.000000 0.000000 0.000000 0.000000 0.000000 0.000000 0.000000 -0.000000 0.000000 -34.998714 -0.000000 0.000000 0.000000 -0.000000 0.000000 0.000000 0.000000 0.000000 0.000000 -0.000000 0.000000 -34.998714 -0.000000 0.000000 0.000000 -0.000000 0.000000 0.000000 0.000000 0.000000 0.000000
31.357774 80.514747 337.488623 0.080576 0.973443 35.857570 -0.062640 -0.047977 -35.847418 0.004820 -0.059500 0.009662 1.456884 -0.221911 -0.218327 0.000000 0.000000 0.000000 -2.058906 -0.870423 -1.776970 0.623089 2.842592 0.402923 -1.011956 -6.277602 0.664052 -9.962752 5.032841 1.930029 0.000000 0.000000 0.000000 0.000000 0.000000 0.000000 -0.063042 -0.838344 -0.021054 -0.000000 0.000000 0.000000 -1.221191 5.699456 -0.650304 0.554173 -7.518593 0.837917 0.000000 0.000000 0.000000 0.000000 0.000000 0.000000 -0.538552 0.577355 -35.967695 0.948315 -2.818710 -0.375361 -1.514929 1.580884 1.438748 0.000000 0.000000 0.000000 -2.297024 2.646094 -34.487633 4.159987 -0.843189 -0.635152 -0.012091 0.256497 -1.819998 0.000000 0.000000 0.000000
30.755318 80.635455 336.927733 0.102167 1.860837 36.596442 -0.117169 -0.075056 -36.579794 0.000921 -0.113439 0.015627 2.677658 -0.382203 -0.308881 0.000000 0.000000 0.000000 -3.683686 -1.553791 -3.292631 1.022805 5.196981 0.768118 -2.272937 -12.358587 0.770257 -16.047581 9.047029 4.696805 0.000000 0.000000 0.000000 0.000000 0.000000 0.000000 -1.451078 -1.028243 0.443517 0.803747 -0.011916 -0.354600 -1.799526 10.078221 -1.274640 1.827950 -14.113843 1.552627 0.000000 0.000000 0.000000 0.000000 0.000000 0.000000 -0.936677 0.844056 -36.792130 1.692831 -4.960605 -0.643802 -2.948884 2.573527 2.786202 0.000000 0.000000 0.000000 -4.151715 4.264833 -34.223100 7.111697 -0.874769 -0.849473 -0.027542 -0.176646 -3.167071 0.000000 0.000000 0.000000
30.116424 80.734189 336.302131 0.064101 2.657963 37.220958 -0.162736 -0.081927 -37.200195 -0.011923 -0.162080 0.017506 3.670058 -0.469823 -0.283648 0.000000 0.000000 0.000000 -4.866134 -2.073047 -4.518131 1.245078 7.047942 1.070232 -3.662181 -17.846592 0.418360 -19.470141 12.109476 7.501394 0.000000 0.000000 0.000000 0.000000 0.000000 0.000000 -1.998577 -1.276731 0.701719 1.189037 -0.073908 -0.574379 -2.642069 13.324832 -1.607216 3.698555 -19.209033 2.221815 0.000000 0.000000 0.000000 0.000000 0.000000 0.000000 -1.210820 0.724816 -37.466360 2.200309 -6.462878 -0.852987 -4.288330 3.081400 4.033252 0.000000 0.000000 0.000000 -5.605223 4.973228 -34.200802 8.940421 -0.101217 -0.785679 -0.020976 -1.244033 -4.075052 0.000000 0.000000 0.000000
29.441093 80.810947 335.611818 -0.033885 3.361398 37.736183 -0.198813 -0.069344 -37.712588 -0.033815 -0.205703 0.014996 4.439941 -0.476253 -0.152463 0.000000 0.000000 0.000000 -5.604815 -2.447307 -5.433392 1.329821 8.392274 1.285645 -4.888052 -22.200048 -0.133537 -21.258788 14.125616 9.743807 0.000000 0.000000 0.000000 0.000000 0.000000 0.000000 -2.427856 -1.343430 0.993274 1.559838 -0.169861 -0.820232 -3.363086 14.820121 -1.755506 6.023871 -22.436687 2.810556 0.000000 0.000000 0.000000 0.000000 0.000000 0.000000 -1.377909 0.172516 -37.986366 2.454221 -7.349110 -1.036200 -5.526307 3.174096 5.171264 0.000000 0.000000 0.000000 -6.698783 4.857000 -34.408302 9.696335 1.459439 -0.520612 0.026812 -2.928637 -4.559478 0.000000 0.000000 0.000000
28.729325 80.865730 334.856792 -0.191629 3.968498 38.146415 -0.225154 -0.038092 -38.120375 -0.064729 -0.244581 0.007886 4.990620 -0.395301 0.077352 0.000000 0.000000 0.000000 -5.902265 -2.690383 -6.024705 1.308398 9.232404 1.394965 -5.510148 -24.840234 -0.480539 -22.140529 14.821899 10.925613 0.000000 0.000000 0.000000 0.000000 0.000000 0.000000 -2.740304 -1.225678 1.323900 1.914577 -0.295156 -1.090575 -3.908848 14.438040 -1.765628 8.648362 -23.688861 3.179736 0.000000 0.000000 0.000000 0.000000 0.000000 0.000000 -1.452005 -0.824900 -38.351020 2.462634 -7.645825 -1.212771 -6.662443 2.898555 6.192617 0.000000 0.000000 0.000000 -7.469708 3.966042 -34.833175 9.392102 3.791713 -0.069340 0.125026 -5.248004 -4.619093 0.000000 0.000000 0.000000
27.902916 80.874760 333.778325 -0.426286 4.715715 38.355967 -0.287655 0.005861 -38.327347 -0.107582 -0.329655 -0.006069 4.690192 -0.738684 0.462321 0.000000 0.000000 0.000000 -5.461016 -3.433696 -5.964470 -0.047517 9.762409 0.575790 -1.049421 -20.083194 2.004673 -23.661083 7.937552 7.381913 0.000000 0.000000 0.000000 0.000000 0.000000 0.000000 -2.933788 -0.948200 1.747340 2.492183 -0.541942 -1.467472 -3.807046 11.323563 -1.648449 10.699613 -22.243740 2.816240 0.000000 0.000000 0.000000 0.000000 0.000000 0.000000 -1.286454 -2.566159 -38.431100 1.809909 -7.832050 -1.517114 -7.962191 1.224695 8.041702 0.000000 0.000000 0.000000 -8.430420 1.009898 -35.661603 6.862770 8.994555 1.028082 2.022312 -7.648980 -5.128142 0.000000 0.000000 0.000000
27.016653 80.867640 332.801582 -0.736443 5.160272 38.540317 -0.345292 0.103061 -38.511941 -0.185788 -0.422360 -0.032269 4.697482 -0.248726 1.030113 0.000000 0.000000 0.000000 -4.785352 -3.759004 -5.800377 0.051871 10.211407 0.479579 -0.317677 -17.548845 2.242005 -22.365679 3.626033 5.199575 0.000000 0.000000 0.000000 0.000000 0.000000 0.000000 -2.878156 -0.278227 2.234376 2.986186 -0.823595 -1.851783 -4.022873 5.836590 -1.306017 14.269660 -18.483798 1.596362 0.000000 0.000000 0.000000 0.000000 0.000000 0.000000 -0.629774 -4.309718 -38.411247 0.903122 -7.925688 -1.811817 -9.709591 -2.466792 10.911986 0.000000 0.000000 0.000000 -8.617936 -2.597653 -36.875059 2.490645 14.577168 2.794339 3.376159 -11.879652 -4.446041 0.000000 0.000000 0.000000
26.231638 80.851762 331.858345 -1.028057 5.405507 38.516898 -0.295831 0.207632 -38.482273 -0.224218 -0.386733 -0.047153 4.525474 0.204254 1.583423 0.000000 0.000000 0.000000 -3.588427 -2.183398 -5.458377 0.001002 7.450851 0.577119 0.039898 -16.772990 2.552930 -21.030908 2.762613 4.042815 0.000000 0.000000 0.000000 0.000000 0.000000 0.000000 -2.990355 0.256040 2.667638 3.394749 -1.074856 -2.178472 -4.257786 2.382661 -1.153058 18.612622 -16.851977 0.637038 0.000000 0.000000 0.000000 0.000000 0.000000 0.000000 -0.628961 -6.083296 -38.232303 0.884375 -6.808061 -1.935827 -10.336967 -1.148989 10.334976 0.000000 0.000000 0.000000 -8.580774 -5.171299 -37.603016 -1.265679 18.402590 4.385032 3.577189 -16.550034 -2.887172 0.000000 0.000000 0.000000
25.528309 80.843569 331.128223 -1.346027 5.348585 38.410929 -0.241955 0.288155 -38.372460 -0.275501 -0.342367 -0.065840 4.697482 1.320524 2.181542 0.000000 0.000000 0.000000 -2.263017 -0.693200 -4.898795 0.609941 5.190036 0.954038 -0.410547 -15.162829 2.245732 -18.964828 2.051029 2.960573 0.000000 0.000000 0.000000 0.000000 0.000000 0.000000 -2.949884 1.066003 3.096008 3.459266 -0.977712 -2.414742 -4.523065 -0.248740 -1.191585 21.108876 -14.733804 -0.219588 0.000000 0.000000 0.000000 0.000000 0.000000 0.000000 -0.601509 -7.621004 -37.995681 1.322197 -5.178167 -1.965609 -11.009804 -2.964271 10.512311 0.000000 0.000000 0.000000 -7.721716 -7.283614 -38.229584 -4.295541 20.286345 5.658976 2.150791 -20.789846 -0.623351 0.000000 0.000000 0.000000
25.002665 80.940393 330.503424 -1.638920 5.191113 38.921000 -0.177660 0.315079 -38.878694 -0.301134 -0.284546 -0.078614 4.913479 2.378936 2.648770 0.000000 0.000000 0.000000 -1.065619 0.483507 -4.276825 1.760736 3.450060 1.642980 -1.637433 -13.276331 1.361867 -16.772670 2.467189 2.448132 0.000000 0.000000 0.000000 0.000000 0.000000 0.000000 -2.793499 1.901989 3.448628 2.971935 -0.930851 -2.543431 -5.138468 -0.866741 -1.441486 23.596505 -14.420528 -0.259311 0.000000 0.000000 0.000000 0.000000 0.000000 0.000000 -0.630966 -9.017783 -38.395974 1.562582 -3.299046 -1.962046 -11.719397 -4.266436 10.441120 0.000000 0.000000 0.000000 -6.728332 -8.941572 -39.377970 -6.275383 20.583730 6.299597 -5.098186 -32.733407 4.768273 0.000000 0.000000 0.000000
24.630158 81.169355 329.822553 -1.845583 5.156855 40.065831 -0.151473 0.325876 -40.020957 -0.306306 -0.265341 -0.086872 5.027057 3.044551 2.971333 0.000000 0.000000 0.000000 -0.172254 1.183266 -3.772609 2.906040 2.584097 2.298198 -2.012077 -11.594721 1.055357 -14.008303 3.085051 1.631522 0.000000 0.000000 0.000000 0.000000 0.000000 0.000000 -2.739594 2.596520 3.757077 2.180125 -0.563796 -2.589209 -5.760884 -0.712601 -1.864203 25.649084 -13.572756 0.036802 0.000000 0.000000 0.000000 0.000000 0.000000 0.000000 -0.539632 -10.275065 -39.411231 0.973105 -2.113126 -2.012190 -11.502639 -4.821789 10.088629 0.000000 0.000000 0.000000 -6.074457 -10.786726 -41.227162 -8.998017 21.220914 7.192387 -10.201135 -43.379700 8.722673 0.000000 0.000000 0.000000
24.384933 81.475631 329.234986 -1.950770 4.984258 41.319474 -0.210967 0.299845 -41.281854 -0.335161 -0.289529 -0.098676 4.791112 4.558977 3.616598 0.000000 0.000000 0.000000 0.468912 1.647992 -3.344200 4.109565 2.445328 2.923533 -2.273413 -9.561657 0.652338 -11.700689 3.582811 1.038561 0.000000 0.000000 0.000000 0.000000 0.000000 0.000000 -2.802155 3.316555 4.017292 1.284074 -0.191112 -2.563012 -6.449361 -0.213616 -2.286494 26.756563 -12.183430 0.387443 0.000000 0.000000 0.000000 0.000000 0.000000 0.000000 -0.479882 -11.352817 -40.548565 0.040792 -0.787949 -2.001279 -13.074992 -6.317428 11.389907 0.000000 0.000000 0.000000 -5.411930 -12.095326 -43.057190 -11.462794 21.245146 7.832158 -14.254984 -52.687402 11.893366 0.000000 0.000000 0.000000
24.074375 81.768392 328.564899 -2.081426 4.726729 42.932053 -0.288356 0.277541 -42.905348 -0.354490 -0.312935 -0.111450 4.214098 5.847477 4.264917 0.000000 0.000000 0.000000 0.904152 1.655312 -2.997303 5.207043 3.086627 3.355292 -2.188137 -7.131179 0.261314 -8.506419 0.042979 -0.052900 0.000000 0.000000 0.000000 0.000000 0.000000 0.000000 -2.869913 4.036205 4.265346 0.597838 -0.015518 -2.558617 -6.903232 0.650577 -2.607114 25.350795 -15.836398 1.468965 0.000000 0.000000 0.000000 0.000000 0.000000 0.000000 -0.097932 -11.887332 -42.044469 -1.002958 -0.910510 -2.114575 -13.963404 -9.518329 13.706725 0.000000 0.000000 0.000000 -4.886788 -13.552392 -45.310114 -14.117714 21.412133 8.606447 -15.931910 -58.466497 14.702367 0.000000 0.000000 0.000000
23.829600 82.006914 327.939387 -2.159331 4.481171 44.315145 -0.358967 0.308614 -44.300544 -0.353322 -0.299108 -0.118745 3.743672 6.256704 4.547198 0.000000 0.000000 0.000000 0.977378 1.020867 -2.824663 6.087291 4.627571 3.488428 -1.560778 -4.657845 0.087218 -9.373531 -1.540265 -0.389291 0.000000 0.000000 0.000000 0.000000 0.000000 0.000000 -2.919129 4.505748 4.429371 -0.075303 -0.328090 -2.561015 -7.441225 2.697114 -2.762415 23.333732 -19.970371 2.546165 0.000000 0.000000 0.000000 0.000000 0.000000 0.000000 0.786151 -11.876465 -43.281582 -2.372113 -2.579821 -2.361233 -13.908658 -9.727469 15.124139 0.000000 0.000000 0.000000 -4.621235 -14.720406 -47.222079 -16.200251 21.515405 9.220977 -14.752141 -59.410969 17.436602 0.000000 0.000000 0.000000
23.474864 82.164482 327.552695 -2.407244 4.094419 45.573029 -0.450715 0.219058 -45.572581 -0.380057 -0.383503 -0.139343 3.704349 7.043168 4.749505 0.000000 0.000000 0.000000 0.901158 0.562683 -2.845228 6.570254 6.260860 3.422396 0.290589 -2.410062 0.759593 -14.237273 -2.240110 -1.269804 0.000000 0.000000 0.000000 0.000000 0.000000 0.000000 -2.760804 4.988416 4.499452 -1.031009 -0.373627 -2.409141 -8.057873 2.807089 -2.871875 23.420841 -19.010379 2.432894 0.000000 0.000000 0.000000 0.000000 0.000000 0.000000 1.720143 -12.081877 -44.395273 -3.272307 -3.506228 -2.528481 -14.885670 -9.143694 16.178419 0.000000 0.000000 0.000000 -3.935742 -15.618159 -48.901771 -17.944389 21.338770 9.731275 -11.260297 -54.524517 18.808968 0.000000 0.000000 0.000000
